<mxfile host="app.diagrams.net" modified="2021-05-21T06:58:12.364Z" agent="5.0 (Macintosh; Intel Mac OS X 10_15_6) AppleWebKit/605.1.15 (KHTML, like Gecko) Version/14.0.3 Safari/605.1.15" etag="a5jBqOIGzlqK_2BaMT9X" version="14.6.13" type="github">
  <diagram name="Page-1" id="e3a06f82-3646-2815-327d-82caf3d4e204">
    <mxGraphModel dx="1113" dy="641" grid="1" gridSize="10" guides="1" tooltips="1" connect="1" arrows="1" fold="1" page="1" pageScale="1.5" pageWidth="1169" pageHeight="826" background="none" math="0" shadow="0">
      <root>
        <mxCell id="0" style=";html=1;" />
        <mxCell id="1" style=";html=1;" parent="0" />
        <mxCell id="ryoy5CccYLSPgOO6ROD8-11" value="" style="shape=ext;double=1;rounded=0;whiteSpace=wrap;html=1;align=left;fillColor=none;" vertex="1" parent="1">
          <mxGeometry x="490" y="150" width="480" height="420" as="geometry" />
        </mxCell>
        <mxCell id="6a7d8f32e03d9370-60" value="风控平台" style="whiteSpace=wrap;html=1;fillColor=#d5e8d4;fontSize=14;strokeColor=none;verticalAlign=top;" parent="1" vertex="1">
          <mxGeometry x="530" y="170" width="160" height="120" as="geometry" />
        </mxCell>
        <mxCell id="6a7d8f32e03d9370-58" value="CDS" style="whiteSpace=wrap;html=1;fillColor=#dae8fc;fontSize=14;strokeColor=none;verticalAlign=top;" parent="1" vertex="1">
          <mxGeometry x="530" y="411" width="160" height="129" as="geometry" />
        </mxCell>
        <mxCell id="ryoy5CccYLSPgOO6ROD8-4" style="edgeStyle=orthogonalEdgeStyle;rounded=0;orthogonalLoop=1;jettySize=auto;html=1;exitX=0.333;exitY=1.033;exitDx=0;exitDy=0;exitPerimeter=0;" edge="1" parent="1" source="6a7d8f32e03d9370-6">
          <mxGeometry relative="1" as="geometry">
            <mxPoint x="690" y="502" as="targetPoint" />
            <Array as="points">
              <mxPoint x="806" y="502" />
            </Array>
          </mxGeometry>
        </mxCell>
        <mxCell id="ryoy5CccYLSPgOO6ROD8-5" style="edgeStyle=orthogonalEdgeStyle;rounded=0;orthogonalLoop=1;jettySize=auto;html=1;entryX=1;entryY=0.5;entryDx=0;entryDy=0;" edge="1" parent="1" source="6a7d8f32e03d9370-6" target="6a7d8f32e03d9370-60">
          <mxGeometry relative="1" as="geometry">
            <Array as="points">
              <mxPoint x="811" y="230" />
            </Array>
          </mxGeometry>
        </mxCell>
        <mxCell id="6a7d8f32e03d9370-6" value="Client" style="verticalLabelPosition=bottom;aspect=fixed;html=1;verticalAlign=top;strokeColor=none;shape=mxgraph.citrix.pda;fillColor=#66B2FF;gradientColor=#0066CC;fontSize=14;" parent="1" vertex="1">
          <mxGeometry x="796" y="350" width="30" height="61" as="geometry" />
        </mxCell>
        <mxCell id="ryoy5CccYLSPgOO6ROD8-2" style="edgeStyle=orthogonalEdgeStyle;rounded=0;orthogonalLoop=1;jettySize=auto;html=1;" edge="1" parent="1" source="ryoy5CccYLSPgOO6ROD8-1">
          <mxGeometry relative="1" as="geometry">
            <mxPoint x="826" y="380" as="targetPoint" />
          </mxGeometry>
        </mxCell>
        <mxCell id="ryoy5CccYLSPgOO6ROD8-1" value="Actor" style="shape=umlActor;verticalLabelPosition=bottom;verticalAlign=top;html=1;outlineConnect=0;" vertex="1" parent="1">
          <mxGeometry x="900" y="350" width="30" height="60" as="geometry" />
        </mxCell>
        <mxCell id="ryoy5CccYLSPgOO6ROD8-6" value="1.设备信息&lt;br&gt;2.系统设置&lt;br&gt;3.数据连接状态&lt;br&gt;4.外设连接状态&lt;br&gt;5.违规操作或访问" style="text;html=1;strokeColor=none;fillColor=none;align=left;verticalAlign=middle;whiteSpace=wrap;rounded=0;" vertex="1" parent="1">
          <mxGeometry x="560" y="230" width="100" height="20" as="geometry" />
        </mxCell>
        <mxCell id="ryoy5CccYLSPgOO6ROD8-7" value="1.设备信息&lt;br&gt;2.软介质信息" style="text;html=1;strokeColor=none;fillColor=none;align=left;verticalAlign=middle;whiteSpace=wrap;rounded=0;" vertex="1" parent="1">
          <mxGeometry x="570" y="470" width="80" height="20" as="geometry" />
        </mxCell>
      </root>
    </mxGraphModel>
  </diagram>
</mxfile>
